<?xml version="1.0" encoding="utf-8"?>
<!-- Generator: Adobe Illustrator 26.0.1, SVG Export Plug-In . SVG Version: 6.00 Build 0)  -->
<svg version="1.1" id="Слой_1" xmlns="http://www.w3.org/2000/svg" xmlns:xlink="http://www.w3.org/1999/xlink" x="0px" y="0px"
	 viewBox="0 0 176 52" style="enable-background:new 0 0 176 52;" xml:space="preserve">
<style type="text/css">
	.st0{fill:#FFFFFF;}
</style>
<path class="st0" d="M7.8,23.4l2.6-1.3l4.2-6.3l1.3-0.5l1.4,6.4l-1.8,0.3l-1.4-2.6l-1,4.1h4.5l4.7,1.2l1.9-1.2l3.2,3.3l1.4-6.1
	l2.2,2.3l1.4-1.9l2.2-0.6l3.2-3.1l0.5-1.5l2.6,0.4l1.1,1.5l-2,4.2l4.9-2.5v-1.2l1.9-0.4l2,2.1l2-2.5v-1.7l3.3-2.4l1.4-2h2.1l3.8-7.8
	L64.7,0l1.2,1.9L64,4.4l0.7,1.6l1.8,0.3l1.5,6.5v5.4l2.6,3.6l1.3,5l-4.4-2.9l-2-8.3l-1.2,0.3L64,21.4l-3.2,5.3l-0.9,8.1l2.2,0.5
	l0.9-1.1l2.1,2.4l1.6,7.3l-0.2,4.7h-2l-0.8-6.6l-1.5,2l-3.2-0.7l-2.6-2.2l-2.9,1l0.2,4.7l-2.3,0.6l-3.4,2.6L44,49.6l-1.6-1l-2.6,0.4
	l0.9,1l-2,1.2L37,50.6L34,52l-4.7-2.4l-1.8-4.2l-1.5,0.2l-1.8-1.5L24.1,43l-5.7-0.6l-0.9,3.1l-3.6-1.7L12,40.8H8.2l-0.4,4.9
	l-2.2,0.7l-1.1,4.4l-0.9-0.8L0,40.7l4.3-2.1l-0.7-4.1l-0.7-4.2l1.9-2.7L4.2,26l2.6-2.8L7.8,23.4z M64.5,33.7l3.9,5.9l1.3-0.5
	l-1.6-2.4l-3.6-3.8V33.7z M24.4,21.6v-1.7l3-2.2l2.6-1.3h-3L24.3,18l-1.6,1.5v2.2H24.4z"/>
<path class="st0" d="M89.8,41h4.7v-5.2h2.6c4,0,6.6-2.3,6.6-6.1c0-3.7-2.6-6.2-6.5-6.2h-7.5V41z M94.6,32.1v-4.8h1.7
	c1.7,0,2.7,0.9,2.7,2.4c0,1.5-1,2.4-2.7,2.4H94.6z"/>
<path class="st0" d="M111.6,41.2c4.2,0,6.8-2.7,6.8-6.8s-2.5-6.8-6.8-6.8c-4.2,0-6.8,2.7-6.8,6.8S107.4,41.2,111.6,41.2z
	 M111.6,37.8c-1.3,0-2-1.3-2-3.3c0-2.1,0.7-3.3,2-3.3c1.2,0,1.9,1.3,1.9,3.3C113.6,36.5,112.8,37.8,111.6,37.8z"/>
<path class="st0" d="M126.6,41.2c3.9,0,6.2-2.2,6.3-5.7h-4.3c-0.1,1.4-0.8,2.1-1.9,2.1c-1.2,0-2-1.1-2-3.2c0-2.1,0.8-3.2,2-3.2
	c1,0,1.7,0.7,1.9,2.1h4.3c0-3.4-2.4-5.6-6.3-5.6c-4.2,0-6.8,2.7-6.8,6.8S122.3,41.2,126.6,41.2z"/>
<path class="st0" d="M141.1,41.2c3.9,0,6.2-2.2,6.3-5.7H143c-0.1,1.4-0.8,2.1-1.9,2.1c-1.2,0-2-1.1-2-3.2c0-2.1,0.8-3.2,2-3.2
	c1,0,1.7,0.7,1.9,2.1h4.4c0-3.4-2.4-5.6-6.3-5.6c-4.2,0-6.8,2.7-6.8,6.8S136.8,41.2,141.1,41.2z"/>
<path class="st0" d="M153.7,35v-7.1h-4.4V41h4.4l3.6-7.1V41h4.4V27.9h-4.4L153.7,35z"/>
<path class="st0" d="M171.7,41h4.3V27.9h-6.1c-3.8,0-6.1,1.9-6.1,4.6c0,1.5,0.9,2.7,2.4,3.5l-2.6,5.1h4.3l2.2-4.3h1.5V41z
	 M171.7,33.8H170c-1.2,0-1.8-0.6-1.8-1.2c0-0.5,0.5-1.2,1.7-1.2h1.8V33.8z"/>
</svg>
