<?xml version="1.0" encoding="utf-8"?>
<!-- Generator: Adobe Illustrator 26.0.1, SVG Export Plug-In . SVG Version: 6.00 Build 0)  -->
<svg version="1.1" id="Слой_1" xmlns="http://www.w3.org/2000/svg" xmlns:xlink="http://www.w3.org/1999/xlink" x="0px" y="0px"
	 viewBox="0 0 16 16" style="enable-background:new 0 0 16 16;" xml:space="preserve">
<style type="text/css">
	.st0{fill:#897E7A;}
</style>
<path class="st0" d="M1,4.6h0.8v-1h0.4c0.6,0,1.1-0.4,1.1-1.1c0-0.7-0.4-1.1-1-1.1H1V4.6z M1.8,2.9V2.1H2c0.3,0,0.4,0.2,0.4,0.4
	c0,0.3-0.2,0.4-0.4,0.4H1.8z"/>
<path class="st0" d="M4.5,4.6c0.7,0,1.1-0.5,1.1-1.2c0-0.7-0.4-1.2-1.1-1.2c-0.7,0-1.1,0.5-1.1,1.2C3.4,4.1,3.8,4.6,4.5,4.6z M4.5,4
	C4.3,4,4.2,3.7,4.2,3.4c0-0.4,0.1-0.6,0.3-0.6c0.2,0,0.3,0.2,0.3,0.6C4.8,3.7,4.7,4,4.5,4z"/>
<path class="st0" d="M6.9,4.6c0.6,0,1-0.4,1-1H7.2c0,0.3-0.1,0.4-0.3,0.4c-0.2,0-0.3-0.2-0.3-0.6c0-0.4,0.1-0.6,0.3-0.6
	c0.2,0,0.3,0.1,0.3,0.4h0.7c0-0.6-0.4-1-1-1c-0.7,0-1.1,0.5-1.1,1.2C5.8,4.1,6.2,4.6,6.9,4.6z"/>
<path class="st0" d="M9.2,4.6c0.6,0,1-0.4,1-1H9.5c0,0.3-0.1,0.4-0.3,0.4C9,3.9,8.9,3.8,8.9,3.4C8.9,3,9,2.8,9.2,2.8
	c0.2,0,0.3,0.1,0.3,0.4h0.7c0-0.6-0.4-1-1-1c-0.7,0-1.1,0.5-1.1,1.2C8.1,4.1,8.5,4.6,9.2,4.6z"/>
<path class="st0" d="M11.2,3.5V2.2h-0.7v2.4h0.7l0.6-1.3v1.3h0.7V2.2h-0.7L11.2,3.5z"/>
<path class="st0" d="M14.1,4.6h0.7V2.2h-1c-0.6,0-1,0.4-1,0.8c0,0.3,0.1,0.5,0.4,0.6l-0.4,0.9h0.7l0.4-0.8h0.2V4.6z M14.1,3.2h-0.3
	c-0.2,0-0.3-0.1-0.3-0.2c0-0.1,0.1-0.2,0.3-0.2h0.3V3.2z"/>
<path class="st0" d="M2.5,9.8L3,9.6l0.8-1l0.3-0.1l0.3,1L4,9.6L3.7,9.2L3.5,9.8h0.9L5.4,10l0.4-0.2l0.6,0.5l0.3-1l0.4,0.4l0.3-0.3
	l0.4-0.1l0.7-0.5l0.1-0.2l0.5,0.1l0.2,0.2L9,9.6l1-0.4V9l0.4-0.1l0.4,0.3l0.4-0.4V8.6l0.7-0.4l0.3-0.3h0.4l0.8-1.2l0.7-0.5l0.2,0.3
	l-0.4,0.4L13.9,7l0.4,0.1l0.3,1V9l0.5,0.6l0.3,0.8l-0.9-0.5l-0.4-1.3l-0.2,0l0,0.9l-0.7,0.9l-0.2,1.3l0.4,0.1l0.2-0.2L14,12l0.3,1.2
	l0,0.8h-0.4l-0.2-1.1l-0.3,0.3L12.8,13l-0.5-0.3l-0.6,0.2l0,0.8l-0.5,0.1l-0.7,0.4L9.8,14l-0.3-0.2L8.9,14l0.2,0.2l-0.4,0.2
	l-0.3-0.1l-0.6,0.2L6.8,14l-0.4-0.7l-0.3,0l-0.4-0.2l0-0.2l-1.1-0.1l-0.2,0.5l-0.7-0.3l-0.4-0.5H2.6l-0.1,0.8L2,13.5l-0.2,0.7
	l-0.2-0.1l-0.7-1.5l0.9-0.3l-0.1-0.7l-0.1-0.7l0.4-0.4l-0.1-0.3l0.5-0.4L2.5,9.8z M13.9,11.5l0.8,1l0.3-0.1L14.6,12l-0.7-0.6V11.5z
	 M5.8,9.5V9.3l0.6-0.3l0.5-0.2H6.3L5.8,9L5.5,9.2v0.3H5.8z"/>
</svg>
